<svg viewBox="0 0 512 512" xmlns="http://www.w3.org/2000/svg">
    <defs>
          <linearGradient id="bg" x1="0%" y1="0%" x2="100%" y2="100%">
                  <stop offset="0%" stop-color="#22d3ee" />
                  <stop offset="50%" stop-color="#3b82f6" />
                  <stop offset="100%" stop-color="#9333ea" />
          </linearGradient>
    </defs>
    <g transform="rotate(3, 256, 256)">
          <rect x="32" y="32" width="448" height="448" rx="96" fill="url(#bg)"/>
          <g transform="translate(112, 112) scale(12)">
                    <path d="M12 2C6.48 2 2 6.48 2 12s4.48 10 10 10 10-4.48 10-10S17.52 2 12 2zm0 18c-4.41 0-8-3.59-8-8s3.59-8 8-8 8 3.59 8 8-3.59 8-8 8z" fill="white"/>
                    <circle cx="9" cy="10" r="1.5" fill="white"/>
                    <circle cx="15" cy="10" r="1.5" fill="white"/>
                    <path d="M12 13c-1.66 0-3 1.34-3 3h6c0-1.66-1.34-3-3-3z" fill="white" opacity="0.8"/>
                    <path d="M4 8l2-2m12 2l-2-2" stroke="white" stroke-width="1.5" stroke-linecap="round"/>
          </g>
    </g>
</svg>
